<svg width="40" height="40" viewBox="0 0 40 40" fill="none" xmlns="http://www.w3.org/2000/svg">
<rect width="40" height="40" rx="3" fill="#1A1AFF"/>
<path d="M6 10.48C8.52486 10.48 10.9463 11.483 12.7317 13.2683C14.3846 14.9212 15.3669 17.1194 15.5035 19.44H10.48V23.92H14.6755C14.2069 24.957 13.5518 25.9115 12.7317 26.7317C10.9463 28.517 8.52486 29.52 6 29.52L6 34C9.71303 34 13.274 32.525 15.8995 29.8995C17.5784 28.2206 18.7869 26.1591 19.44 23.92H29.52V19.44H19.9888C19.8554 16.1056 18.5347 12.9272 16.265 10.48H34V6H6L6 10.48Z" fill="white"/>
<path d="M29.52 29.52V34H34V29.52H29.52Z" fill="white"/>
</svg>
