<svg width="120" height="40" viewBox="0 0 120 40" fill="none" xmlns="http://www.w3.org/2000/svg">
<path d="M1.83984 5.12C4.72539 5.12 7.49277 6.26625 9.53316 8.30672C11.4222 10.1956 12.5448 12.7078 12.701 15.36H6.95984V20.48H11.7547C11.2192 21.6652 10.4705 22.7559 9.53316 23.6933C7.49277 25.7338 4.72539 26.88 1.83984 26.88V32C6.08332 32 10.153 30.3142 13.1536 27.3138C15.0723 25.395 16.4534 23.0391 17.1999 20.48H28.7198V15.36H17.8271C17.6746 11.5494 16.1653 7.91672 13.5713 5.12H33.8398V0H1.83984V5.12Z" fill="white"/>
<path d="M33.8398 15.36V10.24H38.9598V15.36H33.8398Z" fill="white"/>
<path d="M33.8398 32V20.48H38.9598V32H33.8398Z" fill="white"/>
<path d="M59.4791 10.24V23.5136L49.2405 10.24H44.0798V32H49.2405V18.6953L59.4791 32H64.6398V10.24H59.4791Z" fill="white"/>
<path d="M69.7598 10.24V21.2C69.7598 27.1647 74.5951 32 80.5598 32C82.6437 32 84.5897 31.4098 86.2398 30.3875V32H91.3598V10.24H86.2398V21.2C86.2398 24.337 83.6968 26.88 80.5598 26.88C77.4228 26.88 74.8798 24.337 74.8798 21.2V10.24H69.7598Z" fill="white"/>
<path fill-rule="evenodd" clip-rule="evenodd" d="M96.3998 10.24V40H101.52V32H107.28C113.289 32 118.16 27.1289 118.16 21.12C118.16 15.1111 113.289 10.24 107.28 10.24H96.3998ZM107.28 26.88H101.52V15.36H107.28C110.461 15.36 113.04 17.9389 113.04 21.12C113.04 24.3011 110.461 26.88 107.28 26.88Z" fill="white"/>
</svg>
